# xmcd
#
# Track frame offsets:
#	150
#	17017
#	32347
#	47380
#	64725
#	80011
#	91615
#	108024
#	125053
#	138468
#	153348
#	172319
#	185534
#	201070
#	217646
#
# Disc length: 3110 seconds
#
# Revision: 1
# Processed by: cddbd v1.5.2PL0 Copyright (c) Steve Scherf et al.
# Submitted via: EZCDAudioConverter 1.2.3.1
#
DISCID=bc0c240f
DTITLE=Matz Bladhs - Leende Dansmusik 2013
DYEAR=1900
DGENRE=
TTITLE0=Tänker Du På Mig I Ensamhet
TTITLE1=En Bit Av Himlen
TTITLE2=Det Du Gör Med Mig
TTITLE3=Det Sägs Att Kärleken Är Evig
TTITLE4=Hold Me
TTITLE5=Diggety Doggety
TTITLE6=Halvvägs Till Himlen
TTITLE7=När Du Ser På Mig
TTITLE8=Mitt Lilla Krypin
TTITLE9=Ingen Större Hemlighet
TTITLE10=Har Jag Sagt Till Dig Idag
TTITLE11=VI Har Så Mycket Att Säga Varandra
TTITLE12=Inte Vet Jag
TTITLE13=You Raise Me Up
TTITLE14=Jag Vill Bara Va En Gammal Man
EXTD=
EXTT0=
EXTT1=
EXTT2=
EXTT3=
EXTT4=
EXTT5=
EXTT6=
EXTT7=
EXTT8=
EXTT9=
EXTT10=
EXTT11=
EXTT12=
EXTT13=
EXTT14=
PLAYORDER=
